<svg width="34" height="34" viewBox="0 0 34 34" fill="none" xmlns="http://www.w3.org/2000/svg">
<g filter="url(#filter0_dd_705_100223)">
<path d="M5 13C5 6.37258 10.3726 1 17 1C23.6274 1 29 6.37258 29 13C29 19.6274 23.6274 25 17 25H5V13Z" fill="white"/>
<path d="M5.5 13C5.5 6.64873 10.6487 1.5 17 1.5C23.3513 1.5 28.5 6.64873 28.5 13C28.5 19.3513 23.3513 24.5 17 24.5H5.5V13Z" stroke="black"/>
<g clip-path="url(#clip0_705_100223)">
<g clip-path="url(#clip1_705_100223)">
<rect x="7" y="3" width="20" height="20" rx="10" fill="#34D399"/>
<path d="M17 11C15.8889 11 15 11.8889 15 13C15 14.1111 15.8889 15 17 15C18.1111 15 19 14.1111 19 13C19 11.8889 18.1111 11 17 11Z" fill="white"/>
<path d="M17 8C14.25 8 12 10.25 12 13C12 15.75 14.25 18 17 18C19.7 18 21.95 15.8 22 13C22 10.25 19.75 8 17 8ZM17 16.6C15.05 16.6 13.45 15 13.45 13.05C13.45 11.1 15.05 9.5 17 9.5C18.9 9.5 20.55 11.1 20.55 13.05C20.55 15 18.95 16.6 17 16.6Z" fill="#D1FAE5"/>
<path d="M17.0257 5C12.6013 5 9 8.60129 9 13.0257C9 17.4502 12.6013 21 17.0257 21C21.3987 21 25 17.4502 25 13.0257C25 8.60129 21.4502 5 17.0257 5ZM17.0257 19.5595C13.4244 19.5595 10.492 16.627 10.492 13.0257C10.492 9.42444 13.4244 6.49196 17.0257 6.49196C20.5756 6.49196 23.508 9.42444 23.508 13.0257C23.508 16.627 20.627 19.5595 17.0257 19.5595Z" fill="#A7F3D0"/>
</g>
</g>
</g>
<defs>
<filter id="filter0_dd_705_100223" x="0" y="0" width="34" height="34" filterUnits="userSpaceOnUse" color-interpolation-filters="sRGB">
<feFlood flood-opacity="0" result="BackgroundImageFix"/>
<feColorMatrix in="SourceAlpha" type="matrix" values="0 0 0 0 0 0 0 0 0 0 0 0 0 0 0 0 0 0 127 0" result="hardAlpha"/>
<feMorphology radius="2" operator="erode" in="SourceAlpha" result="effect1_dropShadow_705_100223"/>
<feOffset dy="2"/>
<feGaussianBlur stdDeviation="2"/>
<feComposite in2="hardAlpha" operator="out"/>
<feColorMatrix type="matrix" values="0 0 0 0 0 0 0 0 0 0 0 0 0 0 0 0 0 0 0.1 0"/>
<feBlend mode="normal" in2="BackgroundImageFix" result="effect1_dropShadow_705_100223"/>
<feColorMatrix in="SourceAlpha" type="matrix" values="0 0 0 0 0 0 0 0 0 0 0 0 0 0 0 0 0 0 127 0" result="hardAlpha"/>
<feMorphology radius="1" operator="erode" in="SourceAlpha" result="effect2_dropShadow_705_100223"/>
<feOffset dy="4"/>
<feGaussianBlur stdDeviation="3"/>
<feComposite in2="hardAlpha" operator="out"/>
<feColorMatrix type="matrix" values="0 0 0 0 0 0 0 0 0 0 0 0 0 0 0 0 0 0 0.1 0"/>
<feBlend mode="normal" in2="effect1_dropShadow_705_100223" result="effect2_dropShadow_705_100223"/>
<feBlend mode="normal" in="SourceGraphic" in2="effect2_dropShadow_705_100223" result="shape"/>
</filter>
<clipPath id="clip0_705_100223">
<rect x="7" y="3" width="20" height="20" rx="10" fill="white"/>
</clipPath>
<clipPath id="clip1_705_100223">
<rect x="7" y="3" width="20" height="20" rx="10" fill="white"/>
</clipPath>
</defs>
</svg>
