<svg width="141" height="34" viewBox="0 0 141 34" fill="none" xmlns="http://www.w3.org/2000/svg">
<g filter="url(#filter0_dd_837_13992)">
<path d="M5 13C5 6.37258 10.3726 1 17 1H124C130.627 1 136 6.37258 136 13V13C136 19.6274 130.627 25 124 25H5V13Z" fill="#EB4127" shape-rendering="crispEdges"/>
<g clip-path="url(#clip0_837_13992)">
<path d="M20.8171 11.1826L17.1829 14.8169" stroke="white" stroke-linecap="round" stroke-linejoin="round"/>
<path d="M17.1829 11.1826L20.8171 14.8169" stroke="white" stroke-linecap="round" stroke-linejoin="round"/>
<path d="M19 18.5716C22.077 18.5716 24.5714 16.0772 24.5714 13.0001C24.5714 9.92312 22.077 7.42871 19 7.42871C15.923 7.42871 13.4286 9.92312 13.4286 13.0001C13.4286 16.0772 15.923 18.5716 19 18.5716Z" stroke="white" stroke-linecap="round" stroke-linejoin="round"/>
</g>
<path d="M34.1654 18V8.2H35.9574L40.5634 15.102V8.2H42.3554V18H40.5634L35.9574 11.112V18H34.1654ZM47.4052 18.168C46.7332 18.168 46.1265 18.014 45.5852 17.706C45.0532 17.398 44.6285 16.9733 44.3112 16.432C44.0032 15.8813 43.8492 15.2467 43.8492 14.528C43.8492 13.8093 44.0079 13.1793 44.3252 12.638C44.6425 12.0873 45.0672 11.658 45.5992 11.35C46.1405 11.042 46.7472 10.888 47.4192 10.888C48.0819 10.888 48.6792 11.042 49.2112 11.35C49.7525 11.658 50.1772 12.0873 50.4852 12.638C50.8025 13.1793 50.9612 13.8093 50.9612 14.528C50.9612 15.2467 50.8025 15.8813 50.4852 16.432C50.1772 16.9733 49.7525 17.398 49.2112 17.706C48.6699 18.014 48.0679 18.168 47.4052 18.168ZM47.4052 16.614C47.8719 16.614 48.2779 16.4413 48.6232 16.096C48.9685 15.7413 49.1412 15.2187 49.1412 14.528C49.1412 13.8373 48.9685 13.3193 48.6232 12.974C48.2779 12.6193 47.8765 12.442 47.4192 12.442C46.9432 12.442 46.5325 12.6193 46.1872 12.974C45.8512 13.3193 45.6832 13.8373 45.6832 14.528C45.6832 15.2187 45.8512 15.7413 46.1872 16.096C46.5325 16.4413 46.9385 16.614 47.4052 16.614ZM52.4234 18V11.056H54.0054L54.1454 12.232C54.3601 11.8213 54.6681 11.4947 55.0694 11.252C55.4801 11.0093 55.9608 10.888 56.5114 10.888C57.3701 10.888 58.0374 11.1587 58.5134 11.7C58.9894 12.2413 59.2274 13.0347 59.2274 14.08V18H57.4354V14.248C57.4354 13.6507 57.3141 13.1933 57.0714 12.876C56.8288 12.5587 56.4508 12.4 55.9374 12.4C55.4334 12.4 55.0181 12.5773 54.6914 12.932C54.3741 13.2867 54.2154 13.7813 54.2154 14.416V18H52.4234ZM67.399 18.168C66.6896 18.168 66.0643 18.014 65.523 17.706C64.9816 17.398 64.5523 16.9687 64.235 16.418C63.927 15.8673 63.773 15.2373 63.773 14.528C63.773 13.8187 63.927 13.1887 64.235 12.638C64.5523 12.0873 64.9816 11.658 65.523 11.35C66.0643 11.042 66.6896 10.888 67.399 10.888C68.2856 10.888 69.0323 11.1213 69.639 11.588C70.2456 12.0453 70.633 12.68 70.801 13.492H68.911C68.8176 13.156 68.631 12.8947 68.351 12.708C68.0803 12.512 67.7583 12.414 67.385 12.414C66.8903 12.414 66.4703 12.6007 66.125 12.974C65.7796 13.3473 65.607 13.8653 65.607 14.528C65.607 15.1907 65.7796 15.7087 66.125 16.082C66.4703 16.4553 66.8903 16.642 67.385 16.642C67.7583 16.642 68.0803 16.5487 68.351 16.362C68.631 16.1753 68.8176 15.9093 68.911 15.564H70.801C70.633 16.348 70.2456 16.978 69.639 17.454C69.0323 17.93 68.2856 18.168 67.399 18.168ZM75.5835 18.168C74.9115 18.168 74.3048 18.014 73.7635 17.706C73.2315 17.398 72.8068 16.9733 72.4895 16.432C72.1815 15.8813 72.0275 15.2467 72.0275 14.528C72.0275 13.8093 72.1862 13.1793 72.5035 12.638C72.8208 12.0873 73.2455 11.658 73.7775 11.35C74.3188 11.042 74.9255 10.888 75.5975 10.888C76.2602 10.888 76.8575 11.042 77.3895 11.35C77.9308 11.658 78.3555 12.0873 78.6635 12.638C78.9808 13.1793 79.1395 13.8093 79.1395 14.528C79.1395 15.2467 78.9808 15.8813 78.6635 16.432C78.3555 16.9733 77.9308 17.398 77.3895 17.706C76.8482 18.014 76.2462 18.168 75.5835 18.168ZM75.5835 16.614C76.0502 16.614 76.4562 16.4413 76.8015 16.096C77.1468 15.7413 77.3195 15.2187 77.3195 14.528C77.3195 13.8373 77.1468 13.3193 76.8015 12.974C76.4562 12.6193 76.0548 12.442 75.5975 12.442C75.1215 12.442 74.7108 12.6193 74.3655 12.974C74.0295 13.3193 73.8615 13.8373 73.8615 14.528C73.8615 15.2187 74.0295 15.7413 74.3655 16.096C74.7108 16.4413 75.1168 16.614 75.5835 16.614ZM80.6017 18V11.056H82.1837L82.3237 12.232C82.5384 11.8213 82.8464 11.4947 83.2477 11.252C83.6584 11.0093 84.1391 10.888 84.6897 10.888C85.5484 10.888 86.2157 11.1587 86.6917 11.7C87.1677 12.2413 87.4057 13.0347 87.4057 14.08V18H85.6137V14.248C85.6137 13.6507 85.4924 13.1933 85.2497 12.876C85.0071 12.5587 84.6291 12.4 84.1157 12.4C83.6117 12.4 83.1964 12.5773 82.8697 12.932C82.5524 13.2867 82.3937 13.7813 82.3937 14.416V18H80.6017ZM89.3013 18V12.554H88.3493V11.056H89.3013V10.244C89.3013 9.404 89.5113 8.80667 89.9313 8.452C90.3606 8.09733 90.9393 7.92 91.6673 7.92H92.4373V9.446H91.9473C91.6393 9.446 91.42 9.50667 91.2893 9.628C91.1586 9.74933 91.0933 9.95467 91.0933 10.244V11.056H92.5913V12.554H91.0933V18H89.3013ZM96.9291 18.168C96.2571 18.168 95.6504 18.014 95.1091 17.706C94.5771 17.398 94.1524 16.9733 93.8351 16.432C93.5271 15.8813 93.3731 15.2467 93.3731 14.528C93.3731 13.8093 93.5318 13.1793 93.8491 12.638C94.1664 12.0873 94.5911 11.658 95.1231 11.35C95.6644 11.042 96.2711 10.888 96.9431 10.888C97.6058 10.888 98.2031 11.042 98.7351 11.35C99.2764 11.658 99.7011 12.0873 100.009 12.638C100.326 13.1793 100.485 13.8093 100.485 14.528C100.485 15.2467 100.326 15.8813 100.009 16.432C99.7011 16.9733 99.2764 17.398 98.7351 17.706C98.1938 18.014 97.5918 18.168 96.9291 18.168ZM96.9291 16.614C97.3958 16.614 97.8018 16.4413 98.1471 16.096C98.4924 15.7413 98.6651 15.2187 98.6651 14.528C98.6651 13.8373 98.4924 13.3193 98.1471 12.974C97.8018 12.6193 97.4004 12.442 96.9431 12.442C96.4671 12.442 96.0564 12.6193 95.7111 12.974C95.3751 13.3193 95.2071 13.8373 95.2071 14.528C95.2071 15.2187 95.3751 15.7413 95.7111 16.096C96.0564 16.4413 96.4624 16.614 96.9291 16.614ZM101.947 18V11.056H103.543L103.711 12.358C103.963 11.91 104.304 11.5553 104.733 11.294C105.172 11.0233 105.685 10.888 106.273 10.888V12.778H105.769C105.377 12.778 105.027 12.8387 104.719 12.96C104.411 13.0813 104.169 13.2913 103.991 13.59C103.823 13.8887 103.739 14.304 103.739 14.836V18H101.947ZM107.358 18V11.056H108.94L109.094 11.994C109.318 11.658 109.612 11.392 109.976 11.196C110.349 10.9907 110.779 10.888 111.264 10.888C112.337 10.888 113.098 11.3033 113.546 12.134C113.798 11.7513 114.134 11.448 114.554 11.224C114.983 11 115.45 10.888 115.954 10.888C116.859 10.888 117.555 11.1587 118.04 11.7C118.525 12.2413 118.768 13.0347 118.768 14.08V18H116.976V14.248C116.976 13.6507 116.859 13.1933 116.626 12.876C116.402 12.5587 116.052 12.4 115.576 12.4C115.091 12.4 114.699 12.5773 114.4 12.932C114.111 13.2867 113.966 13.7813 113.966 14.416V18H112.174V14.248C112.174 13.6507 112.057 13.1933 111.824 12.876C111.591 12.5587 111.231 12.4 110.746 12.4C110.27 12.4 109.883 12.5773 109.584 12.932C109.295 13.2867 109.15 13.7813 109.15 14.416V18H107.358ZM123.703 18.168C123.003 18.168 122.383 18.0187 121.841 17.72C121.3 17.4213 120.875 17.0013 120.567 16.46C120.259 15.9187 120.105 15.2933 120.105 14.584C120.105 13.8653 120.255 13.226 120.553 12.666C120.861 12.106 121.281 11.672 121.813 11.364C122.355 11.0467 122.989 10.888 123.717 10.888C124.399 10.888 125.001 11.0373 125.523 11.336C126.046 11.6347 126.452 12.0453 126.741 12.568C127.04 13.0813 127.189 13.6553 127.189 14.29C127.189 14.3927 127.185 14.5 127.175 14.612C127.175 14.724 127.171 14.8407 127.161 14.962H121.883C121.921 15.5033 122.107 15.928 122.443 16.236C122.789 16.544 123.204 16.698 123.689 16.698C124.053 16.698 124.357 16.6187 124.599 16.46C124.851 16.292 125.038 16.0773 125.159 15.816H126.979C126.849 16.2547 126.629 16.656 126.321 17.02C126.023 17.3747 125.649 17.6547 125.201 17.86C124.763 18.0653 124.263 18.168 123.703 18.168ZM123.717 12.344C123.279 12.344 122.891 12.47 122.555 12.722C122.219 12.9647 122.005 13.338 121.911 13.842H125.369C125.341 13.3847 125.173 13.0207 124.865 12.75C124.557 12.4793 124.175 12.344 123.717 12.344Z" fill="white"/>
</g>
<defs>
<filter id="filter0_dd_837_13992" x="0" y="0" width="141" height="34" filterUnits="userSpaceOnUse" color-interpolation-filters="sRGB">
<feFlood flood-opacity="0" result="BackgroundImageFix"/>
<feColorMatrix in="SourceAlpha" type="matrix" values="0 0 0 0 0 0 0 0 0 0 0 0 0 0 0 0 0 0 127 0" result="hardAlpha"/>
<feMorphology radius="2" operator="erode" in="SourceAlpha" result="effect1_dropShadow_837_13992"/>
<feOffset dy="2"/>
<feGaussianBlur stdDeviation="2"/>
<feComposite in2="hardAlpha" operator="out"/>
<feColorMatrix type="matrix" values="0 0 0 0 0 0 0 0 0 0 0 0 0 0 0 0 0 0 0.1 0"/>
<feBlend mode="normal" in2="BackgroundImageFix" result="effect1_dropShadow_837_13992"/>
<feColorMatrix in="SourceAlpha" type="matrix" values="0 0 0 0 0 0 0 0 0 0 0 0 0 0 0 0 0 0 127 0" result="hardAlpha"/>
<feMorphology radius="1" operator="erode" in="SourceAlpha" result="effect2_dropShadow_837_13992"/>
<feOffset dy="4"/>
<feGaussianBlur stdDeviation="3"/>
<feComposite in2="hardAlpha" operator="out"/>
<feColorMatrix type="matrix" values="0 0 0 0 0 0 0 0 0 0 0 0 0 0 0 0 0 0 0.1 0"/>
<feBlend mode="normal" in2="effect1_dropShadow_837_13992" result="effect2_dropShadow_837_13992"/>
<feBlend mode="normal" in="SourceGraphic" in2="effect2_dropShadow_837_13992" result="shape"/>
</filter>
<clipPath id="clip0_837_13992">
<rect width="12" height="12" fill="white" transform="translate(13 7)"/>
</clipPath>
</defs>
</svg>
