<svg width="32" height="32" viewBox="0 0 32 32" fill="none" xmlns="http://www.w3.org/2000/svg">
<rect width="32" height="32" rx="16" fill="black"/>
<g clip-path="url(#clip0_705_100450)">
<path fill-rule="evenodd" clip-rule="evenodd" d="M6.9165 15.0833C6.9165 18.7852 9.13096 21.9698 12.3074 23.3848L13.6664 20.6669C11.4835 19.7536 9.94984 17.5976 9.94984 15.0833C9.94984 11.742 12.6585 9.03333 15.9998 9.03333C19.3412 9.03333 22.0498 11.742 22.0498 15.0833C22.0498 17.5976 20.5162 19.7536 18.3333 20.6669L19.6922 23.3848C22.8687 21.9698 25.0832 18.7852 25.0832 15.0833C25.0832 10.0667 21.0164 6 15.9998 6C10.9833 6 6.9165 10.0667 6.9165 15.0833ZM20.14 24.2802C23.6441 22.7004 26.0832 19.1767 26.0832 15.0833C26.0832 9.51446 21.5687 5 15.9998 5C10.431 5 5.9165 9.51446 5.9165 15.0833C5.9165 19.1767 8.35561 22.7004 11.8597 24.2802L10.8616 26.2764C10.6954 26.6088 10.9372 27 11.3089 27H20.6908C21.0625 27 21.3043 26.6088 21.138 26.2764L20.14 24.2802ZM17.8847 19.7698C19.7401 19.0229 21.0498 17.2061 21.0498 15.0833C21.0498 12.2943 18.7889 10.0333 15.9998 10.0333C13.2108 10.0333 10.9498 12.2943 10.9498 15.0833C10.9498 17.2061 12.2595 19.0229 14.1149 19.7698L15.4832 17.0332C14.6197 16.8051 13.9832 16.0185 13.9832 15.0833C13.9832 13.9696 14.8861 13.0667 15.9998 13.0667C17.1136 13.0667 18.0165 13.9696 18.0165 15.0833C18.0165 16.0185 17.3799 16.8051 16.5164 17.0332L17.8847 19.7698ZM17.0165 15.0833C17.0165 15.6448 16.5613 16.1 15.9998 16.1C15.4383 16.1 14.9832 15.6448 14.9832 15.0833C14.9832 14.5218 15.4383 14.0667 15.9998 14.0667C16.5613 14.0667 17.0165 14.5218 17.0165 15.0833ZM12.1179 26L15.9998 18.2361L19.8818 26H12.1179Z" fill="white"/>
</g>
<defs>
<clipPath id="clip0_705_100450">
<rect width="22" height="22" fill="white" transform="translate(5 5)"/>
</clipPath>
</defs>
</svg>
