<svg width="32" height="32" viewBox="0 0 32 32" fill="none" xmlns="http://www.w3.org/2000/svg">
<rect width="32" height="32" rx="16" fill="black"/>
<path d="M21.1427 14.0718H10.857C10.1469 14.0718 9.57129 14.6474 9.57129 15.3575V23.0718C9.57129 23.7819 10.1469 24.3575 10.857 24.3575H21.1427C21.8528 24.3575 22.4284 23.7819 22.4284 23.0718V15.3575C22.4284 14.6474 21.8528 14.0718 21.1427 14.0718Z" stroke="white" stroke-linecap="round" stroke-linejoin="round"/>
<path d="M20.5 14.0716V12.1431C20.5 10.9496 20.0259 9.805 19.182 8.96109C18.3381 8.11717 17.1935 7.64307 16 7.64307C14.8065 7.64307 13.6619 8.11717 12.818 8.96109C11.9741 9.805 11.5 10.9496 11.5 12.1431V14.0716" stroke="white" stroke-linecap="round" stroke-linejoin="round"/>
<path d="M15.9998 19.8575C16.3548 19.8575 16.6426 19.5697 16.6426 19.2146C16.6426 18.8596 16.3548 18.5718 15.9998 18.5718C15.6448 18.5718 15.3569 18.8596 15.3569 19.2146C15.3569 19.5697 15.6448 19.8575 15.9998 19.8575Z" stroke="white" stroke-linecap="round" stroke-linejoin="round"/>
</svg>
