<svg width="48" height="48" viewBox="0 0 48 48" fill="none" xmlns="http://www.w3.org/2000/svg">
<rect width="48" height="48" rx="24" fill="#34D399"/>
<g clip-path="url(#clip0_769_11871)">
<path d="M24.1188 19.8438C21.7438 19.8438 19.8438 21.7438 19.8438 24.1188C19.8438 26.4938 21.7438 28.3938 24.1188 28.3938C26.4938 28.3938 28.3938 26.4938 28.3938 24.1188C28.3938 21.7438 26.4938 19.8438 24.1188 19.8438Z" fill="white"/>
<path d="M24.119 12.125C17.5878 12.125 12.244 17.4688 12.244 24C12.244 30.5312 17.5878 35.875 24.119 35.875C30.5315 35.875 35.8753 30.65 35.994 24C35.994 17.4688 30.6503 12.125 24.119 12.125ZM24.119 32.55C19.4878 32.55 15.6878 28.75 15.6878 24.1188C15.6878 19.4875 19.4878 15.6875 24.119 15.6875C28.6315 15.6875 32.5503 19.4875 32.5503 24.1188C32.5503 28.75 28.7503 32.55 24.119 32.55Z" fill="#D1FAE5"/>
<path d="M24.1187 5.59375C13.9062 5.59375 5.59375 13.9062 5.59375 24.1187C5.59375 34.3313 13.9062 42.525 24.1187 42.525C34.2125 42.525 42.525 34.3313 42.525 24.1187C42.525 13.9062 34.3313 5.59375 24.1187 5.59375ZM24.1187 39.2C15.8063 39.2 9.0375 32.4312 9.0375 24.1187C9.0375 15.8063 15.8063 9.0375 24.1187 9.0375C32.3125 9.0375 39.0812 15.8063 39.0812 24.1187C39.0812 32.4312 32.4312 39.2 24.1187 39.2Z" fill="#A7F3D0"/>
</g>
<defs>
<clipPath id="clip0_769_11871">
<rect width="38" height="38" fill="white" transform="translate(5 5)"/>
</clipPath>
</defs>
</svg>
