<svg width="20" height="20" viewBox="0 0 20 20" fill="none" xmlns="http://www.w3.org/2000/svg">
<rect width="20" height="20" rx="10" fill="#F8FAFC"/>
<g clip-path="url(#clip0_957_4627)">
<path fill-rule="evenodd" clip-rule="evenodd" d="M3.66675 9.33333C3.66675 11.9188 5.21601 14.1424 7.43683 15.1265L8.30302 13.3941C6.71549 12.7299 5.60008 11.1619 5.60008 9.33333C5.60008 6.90328 7.57003 4.93333 10.0001 4.93333C12.4301 4.93333 14.4001 6.90328 14.4001 9.33333C14.4001 11.1619 13.2847 12.7299 11.6971 13.3941L12.5633 15.1265C14.7842 14.1424 16.3334 11.9188 16.3334 9.33333C16.3334 5.83553 13.4979 3 10.0001 3C6.50228 3 3.66675 5.83553 3.66675 9.33333ZM13.0111 16.022C15.5595 14.873 17.3334 12.3103 17.3334 9.33333C17.3334 5.28325 14.0502 2 10.0001 2C5.94999 2 2.66675 5.28325 2.66675 9.33333C2.66675 12.3103 4.44064 14.873 6.98908 16.022L6.36188 17.2764C6.19566 17.6088 6.43741 18 6.8091 18H13.1911C13.5628 18 13.8045 17.6088 13.6383 17.2764L13.0111 16.022ZM11.2485 12.4968C12.5086 11.9991 13.4001 10.7703 13.4001 9.33333C13.4001 7.45557 11.8778 5.93333 10.0001 5.93333C8.12231 5.93333 6.60008 7.45557 6.60008 9.33333C6.60008 10.7703 7.49158 11.9991 8.75167 12.4968L9.55287 10.8944C9.57936 10.8414 9.61292 10.7961 9.6515 10.7583C9.00976 10.6019 8.53341 10.0232 8.53341 9.33333C8.53341 8.52332 9.19006 7.86667 10.0001 7.86667C10.8101 7.86667 11.4667 8.52332 11.4667 9.33333C11.4667 10.0232 10.9904 10.6019 10.3487 10.7583C10.3872 10.7961 10.4208 10.8414 10.4473 10.8944L11.2485 12.4968ZM10.4667 9.33333C10.4667 9.59107 10.2578 9.8 10.0001 9.8C9.74235 9.8 9.53341 9.59107 9.53341 9.33333C9.53341 9.0756 9.74235 8.86667 10.0001 8.86667C10.2578 8.86667 10.4667 9.0756 10.4667 9.33333ZM7.61812 17L10.0001 12.2361L12.382 17H7.61812Z" fill="black"/>
</g>
<defs>
<clipPath id="clip0_957_4627">
<rect width="16" height="16" fill="white" transform="translate(2 2)"/>
</clipPath>
</defs>
</svg>
