<svg width="48" height="48" viewBox="0 0 48 48" fill="none" xmlns="http://www.w3.org/2000/svg">
<rect width="48" height="48" rx="24" fill="#171717"/>
<g clip-path="url(#clip0_769_11510)">
<path fill-rule="evenodd" clip-rule="evenodd" d="M9.41663 22.6155C9.41663 28.3975 12.9579 33.393 18.0576 35.616L20.3937 31.0495C17.0202 29.6699 14.65 26.4133 14.65 22.6155C14.65 17.5685 18.8361 13.4771 24 13.4771C29.1638 13.4771 33.35 17.5685 33.35 22.6155C33.35 26.4133 30.9797 29.6699 27.6062 31.0495L29.9423 35.616C35.0421 33.393 38.5833 28.3975 38.5833 22.6155C38.5833 14.7775 32.0758 8.38477 24 8.38477C15.9241 8.38477 9.41663 14.7775 9.41663 22.6155ZM30.3983 36.5074C35.8138 34.121 39.5833 28.7985 39.5833 22.6155C39.5833 14.2038 32.6064 7.38477 24 7.38477C15.3935 7.38477 8.41663 14.2038 8.41663 22.6155C8.41663 28.7985 12.1862 34.121 17.6016 36.5074L15.8722 39.8878C15.702 40.2205 15.9437 40.6155 16.3174 40.6155H31.6825C32.0563 40.6155 32.2979 40.2205 32.1277 39.8878L30.3983 36.5074ZM27.1492 30.1561C30.208 28.9416 32.35 26.0114 32.35 22.6155C32.35 18.1422 28.6332 14.4771 24 14.4771C19.3667 14.4771 15.65 18.1422 15.65 22.6155C15.65 26.0114 17.7919 28.9416 20.8508 30.1561L23.2016 25.5608C21.8671 25.2162 20.8833 24.0281 20.8833 22.6155C20.8833 20.9332 22.2787 19.5694 24 19.5694C25.7212 19.5694 27.1166 20.9332 27.1166 22.6155C27.1166 24.0281 26.1328 25.2162 24.7984 25.5608L27.1492 30.1561ZM24.2248 24.6504C25.3052 24.5412 26.1166 23.6533 26.1166 22.6155C26.1166 21.5069 25.1907 20.5694 24 20.5694C22.8093 20.5694 21.8833 21.5069 21.8833 22.6155C21.8833 23.6533 22.6947 24.5412 23.7752 24.6504C23.9156 24.5805 24.0843 24.5805 24.2248 24.6504ZM17.1348 39.6155L24 26.1958L30.8651 39.6155H17.1348Z" fill="#F5F5F5"/>
<path d="M18.0576 35.616L17.8578 36.0743L18.2887 36.2621L18.5027 35.8437L18.0576 35.616ZM20.3937 31.0495L20.8388 31.2772L21.0867 30.7927L20.583 30.5867L20.3937 31.0495ZM27.6062 31.0495L27.417 30.5867L26.9132 30.7927L27.1611 31.2772L27.6062 31.0495ZM29.9423 35.616L29.4972 35.8437L29.7112 36.2621L30.1421 36.0743L29.9423 35.616ZM30.3983 36.5074L30.1967 36.0498L29.7119 36.2635L29.9532 36.7351L30.3983 36.5074ZM17.6016 36.5074L18.0467 36.7351L18.288 36.2635L17.8032 36.0498L17.6016 36.5074ZM15.8722 39.8878L16.3174 40.1155L15.8722 39.8878ZM32.1277 39.8878L31.6825 40.1155L32.1277 39.8878ZM27.1492 30.1561L26.704 30.3838L26.9111 30.7885L27.3337 30.6208L27.1492 30.1561ZM20.8508 30.1561L20.6662 30.6208L21.0888 30.7885L21.2959 30.3838L20.8508 30.1561ZM23.2016 25.5608L23.6467 25.7885L23.931 25.2328L23.3266 25.0767L23.2016 25.5608ZM24.7984 25.5608L24.6733 25.0767L24.0689 25.2328L24.3532 25.7885L24.7984 25.5608ZM24.2248 24.6504L24.0021 25.0981L24.1314 25.1624L24.275 25.1479L24.2248 24.6504ZM23.7752 24.6504L23.7249 25.1479L23.8685 25.1624L23.9978 25.0981L23.7752 24.6504ZM24 26.1958L24.4451 25.9681L24 25.098L23.5548 25.9681L24 26.1958ZM17.1348 39.6155L16.6897 39.3878L16.3174 40.1155H17.1348V39.6155ZM30.8651 39.6155V40.1155H31.6825L31.3103 39.3878L30.8651 39.6155ZM18.2574 35.1576C13.3287 33.0092 9.91663 28.1866 9.91663 22.6155H8.91663C8.91663 28.6084 12.587 33.7768 17.8578 36.0743L18.2574 35.1576ZM19.9486 30.8218L17.6125 35.3882L18.5027 35.8437L20.8388 31.2772L19.9486 30.8218ZM14.15 22.6155C14.15 26.6286 16.6546 30.0606 20.2044 31.5123L20.583 30.5867C17.3858 29.2793 15.15 26.198 15.15 22.6155H14.15ZM24 12.9771C18.5708 12.9771 14.15 17.2816 14.15 22.6155H15.15C15.15 17.8554 19.1014 13.9771 24 13.9771V12.9771ZM33.85 22.6155C33.85 17.2816 29.4291 12.9771 24 12.9771V13.9771C28.8985 13.9771 32.85 17.8554 32.85 22.6155H33.85ZM27.7955 31.5123C31.3453 30.0606 33.85 26.6286 33.85 22.6155H32.85C32.85 26.198 30.6141 29.2793 27.417 30.5867L27.7955 31.5123ZM30.3874 35.3882L28.0514 30.8218L27.1611 31.2772L29.4972 35.8437L30.3874 35.3882ZM38.0833 22.6155C38.0833 28.1866 34.6712 33.0092 29.7425 35.1576L30.1421 36.0743C35.4129 33.7768 39.0833 28.6084 39.0833 22.6155H38.0833ZM24 8.88477C31.8103 8.88477 38.0833 15.0642 38.0833 22.6155H39.0833C39.0833 14.4909 32.3413 7.88477 24 7.88477V8.88477ZM9.91663 22.6155C9.91663 15.0642 16.1896 8.88477 24 8.88477V7.88477C15.6586 7.88477 8.91663 14.4909 8.91663 22.6155H9.91663ZM30.6 36.9649C36.1854 34.5036 40.0833 29.0087 40.0833 22.6155H39.0833C39.0833 28.5883 35.4421 33.7384 30.1967 36.0498L30.6 36.9649ZM40.0833 22.6155C40.0833 13.9169 32.8717 6.88477 24 6.88477V7.88477C32.3411 7.88477 39.0833 14.4907 39.0833 22.6155H40.0833ZM24 6.88477C15.1282 6.88477 7.91663 13.9169 7.91663 22.6155H8.91663C8.91663 14.4907 15.6588 7.88477 24 7.88477V6.88477ZM7.91663 22.6155C7.91663 29.0087 11.8145 34.5036 17.4 36.9649L17.8032 36.0498C12.5578 33.7384 8.91663 28.5883 8.91663 22.6155H7.91663ZM17.1565 36.2797L15.4271 39.6601L16.3174 40.1155L18.0467 36.7351L17.1565 36.2797ZM15.4271 39.6601C15.0867 40.3255 15.57 41.1155 16.3174 41.1155V40.1155H16.3174L15.4271 39.6601ZM16.3174 41.1155H31.6825V40.1155H16.3174V41.1155ZM31.6825 41.1155C32.43 41.1155 32.9132 40.3255 32.5728 39.6601L31.6825 40.1155V41.1155ZM32.5728 39.6601L30.8435 36.2797L29.9532 36.7351L31.6825 40.1155L32.5728 39.6601ZM31.85 22.6155C31.85 25.7944 29.8445 28.5479 26.9647 29.6913L27.3337 30.6208C30.5715 29.3352 32.85 26.2284 32.85 22.6155H31.85ZM24 14.9771C28.3675 14.9771 31.85 18.4287 31.85 22.6155H32.85C32.85 17.8558 28.8989 13.9771 24 13.9771V14.9771ZM16.15 22.6155C16.15 18.4287 19.6324 14.9771 24 14.9771V13.9771C19.101 13.9771 15.15 17.8558 15.15 22.6155H16.15ZM21.0353 29.6913C18.1554 28.5479 16.15 25.7944 16.15 22.6155H15.15C15.15 26.2284 17.4284 29.3352 20.6662 30.6208L21.0353 29.6913ZM22.7564 25.3331L20.4056 29.9283L21.2959 30.3838L23.6467 25.7885L22.7564 25.3331ZM23.3266 25.0767C22.2005 24.7859 21.3833 23.7876 21.3833 22.6155H20.3833C20.3833 24.2687 21.5337 25.6465 23.0765 26.0449L23.3266 25.0767ZM21.3833 22.6155C21.3833 21.2201 22.544 20.0694 24 20.0694V19.0694C22.0134 19.0694 20.3833 20.6463 20.3833 22.6155H21.3833ZM24 20.0694C25.456 20.0694 26.6166 21.2201 26.6166 22.6155H27.6166C27.6166 20.6463 25.9865 19.0694 24 19.0694V20.0694ZM26.6166 22.6155C26.6166 23.7876 25.7994 24.7859 24.6733 25.0767L24.9234 26.0449C26.4662 25.6465 27.6166 24.2687 27.6166 22.6155H26.6166ZM27.5943 29.9283L25.2435 25.3331L24.3532 25.7885L26.704 30.3838L27.5943 29.9283ZM24.275 25.1479C25.6006 25.0139 26.6166 23.9202 26.6166 22.6155H25.6166C25.6166 23.3865 25.0098 24.0685 24.1745 24.1529L24.275 25.1479ZM26.6166 22.6155C26.6166 21.2216 25.4575 20.0694 24 20.0694V21.0694C24.9238 21.0694 25.6166 21.7922 25.6166 22.6155H26.6166ZM24 20.0694C22.5424 20.0694 21.3833 21.2216 21.3833 22.6155H22.3833C22.3833 21.7922 23.0761 21.0694 24 21.0694V20.0694ZM21.3833 22.6155C21.3833 23.9202 22.3993 25.0139 23.7249 25.1479L23.8254 24.1529C22.9901 24.0685 22.3833 23.3865 22.3833 22.6155H21.3833ZM24.4474 24.2027C24.1667 24.0631 23.8332 24.0631 23.5525 24.2027L23.9978 25.0981C23.9968 25.0986 23.9976 25.098 24 25.098C24.0023 25.098 24.0031 25.0986 24.0021 25.0981L24.4474 24.2027ZM23.5548 25.9681L16.6897 39.3878L17.5799 39.8433L24.4451 26.4236L23.5548 25.9681ZM31.3103 39.3878L24.4451 25.9681L23.5548 26.4236L30.42 39.8433L31.3103 39.3878ZM17.1348 40.1155H30.8651V39.1155H17.1348V40.1155Z" fill="#F5F5F5"/>
</g>
<defs>
<clipPath id="clip0_769_11510">
<rect width="34" height="36" fill="white" transform="translate(7 6)"/>
</clipPath>
</defs>
</svg>
