<svg width="48" height="48" viewBox="0 0 48 48" fill="none" xmlns="http://www.w3.org/2000/svg">
<rect width="48" height="48" rx="24" fill="#6366F1"/>
<g clip-path="url(#clip0_769_5950)">
<path opacity="0.3" d="M6 24C6 28.5782 7.74454 32.9845 10.8786 36.3218L24 24L6 24Z" fill="white"/>
<path opacity="0.4" d="M11.2721 11.2721C9.60062 12.9435 8.27475 14.9278 7.37017 17.1117C6.46558 19.2956 6 21.6362 6 24L24 24L11.2721 11.2721Z" fill="white"/>
<path opacity="0.5" d="M24 6C19.2261 6 14.6477 7.89642 11.2721 11.2721L24 24V6Z" fill="white"/>
<path opacity="0.7" d="M36.7279 11.2721C33.3523 7.89642 28.7739 6 24 6V24L36.7279 11.2721Z" fill="white"/>
<path opacity="0.8" d="M42 24C42 19.2261 40.1036 14.6477 36.7279 11.2721L24 24H42Z" fill="white"/>
<path opacity="0.9" d="M36.7279 36.7279C40.1036 33.3523 42 28.7739 42 24L24 24L36.7279 36.7279Z" fill="white"/>
<circle cx="24" cy="24" r="13.5" fill="#6366F1"/>
<path d="M24 24L6 24" stroke="#6366F1"/>
<path d="M24 24L11.2721 11.2721" stroke="#6366F1"/>
<path d="M24 24V6" stroke="#6366F1"/>
<path d="M24 24L36.7279 11.2721" stroke="#6366F1"/>
<path d="M24 24H42" stroke="#6366F1"/>
<path fill-rule="evenodd" clip-rule="evenodd" d="M27.3748 23.9995C27.3748 25.8635 25.8637 27.3745 23.9998 27.3745C22.8643 27.3745 21.8598 26.8138 21.248 25.9541L12.7007 24.2447C12.5839 24.2213 12.4998 24.1187 12.4998 23.9995C12.4998 23.8803 12.5839 23.7777 12.7007 23.7544L21.248 22.0449C21.8598 21.1852 22.8643 20.6245 23.9998 20.6245C25.8637 20.6245 27.3748 22.1356 27.3748 23.9995Z" fill="white"/>
</g>
<defs>
<clipPath id="clip0_769_5950">
<rect width="36" height="36" fill="white" transform="translate(6 6)"/>
</clipPath>
</defs>
</svg>
