<svg width="108" height="34" viewBox="0 0 108 34" fill="none" xmlns="http://www.w3.org/2000/svg">
<g filter="url(#filter0_dd_725_7929)">
<path d="M5 13C5 6.37258 10.3726 1 17 1H96C102.627 1 108 6.37258 108 13V13C108 19.6274 102.627 25 96 25H5V13Z" fill="#22C55E" shape-rendering="crispEdges"/>
<g clip-path="url(#clip0_725_7929)">
<path d="M16.4286 13.8573L18.1857 15.263C18.2329 15.3019 18.2882 15.3297 18.3475 15.3445C18.4068 15.3594 18.4686 15.3608 18.5286 15.3487C18.5891 15.3374 18.6464 15.3131 18.6967 15.2776C18.747 15.2421 18.789 15.1962 18.82 15.143L21.5714 10.4287" stroke="white" stroke-linecap="round" stroke-linejoin="round"/>
<path d="M19 18.5716C22.077 18.5716 24.5714 16.0772 24.5714 13.0001C24.5714 9.92312 22.077 7.42871 19 7.42871C15.923 7.42871 13.4286 9.92312 13.4286 13.0001C13.4286 16.0772 15.923 18.5716 19 18.5716Z" stroke="white" stroke-linecap="round" stroke-linejoin="round"/>
</g>
<path d="M38.5763 18.168C37.587 18.168 36.7376 17.958 36.0283 17.538C35.319 17.1087 34.773 16.516 34.3903 15.76C34.0076 14.9947 33.8163 14.1127 33.8163 13.114C33.8163 12.1153 34.0076 11.2333 34.3903 10.468C34.773 9.70267 35.319 9.10533 36.0283 8.676C36.7376 8.24667 37.587 8.032 38.5763 8.032C39.7523 8.032 40.7136 8.326 41.4603 8.914C42.2163 9.49267 42.6876 10.3093 42.8743 11.364H40.9003C40.779 10.832 40.5176 10.4167 40.1163 10.118C39.7243 9.81 39.2016 9.656 38.5483 9.656C37.643 9.656 36.9336 9.964 36.4203 10.58C35.907 11.196 35.6503 12.0407 35.6503 13.114C35.6503 14.1873 35.907 15.032 36.4203 15.648C36.9336 16.2547 37.643 16.558 38.5483 16.558C39.2016 16.558 39.7243 16.418 40.1163 16.138C40.5176 15.8487 40.779 15.452 40.9003 14.948H42.8743C42.6876 15.956 42.2163 16.7447 41.4603 17.314C40.7136 17.8833 39.7523 18.168 38.5763 18.168ZM47.6106 18.168C46.9386 18.168 46.3319 18.014 45.7906 17.706C45.2586 17.398 44.8339 16.9733 44.5166 16.432C44.2086 15.8813 44.0546 15.2467 44.0546 14.528C44.0546 13.8093 44.2132 13.1793 44.5306 12.638C44.8479 12.0873 45.2726 11.658 45.8046 11.35C46.3459 11.042 46.9526 10.888 47.6246 10.888C48.2872 10.888 48.8846 11.042 49.4166 11.35C49.9579 11.658 50.3826 12.0873 50.6906 12.638C51.0079 13.1793 51.1666 13.8093 51.1666 14.528C51.1666 15.2467 51.0079 15.8813 50.6906 16.432C50.3826 16.9733 49.9579 17.398 49.4166 17.706C48.8752 18.014 48.2732 18.168 47.6106 18.168ZM47.6106 16.614C48.0772 16.614 48.4832 16.4413 48.8286 16.096C49.1739 15.7413 49.3466 15.2187 49.3466 14.528C49.3466 13.8373 49.1739 13.3193 48.8286 12.974C48.4832 12.6193 48.0819 12.442 47.6246 12.442C47.1486 12.442 46.7379 12.6193 46.3926 12.974C46.0566 13.3193 45.8886 13.8373 45.8886 14.528C45.8886 15.2187 46.0566 15.7413 46.3926 16.096C46.7379 16.4413 47.1439 16.614 47.6106 16.614ZM52.6288 18V11.056H54.2108L54.3508 12.232C54.5655 11.8213 54.8735 11.4947 55.2748 11.252C55.6855 11.0093 56.1661 10.888 56.7168 10.888C57.5755 10.888 58.2428 11.1587 58.7188 11.7C59.1948 12.2413 59.4328 13.0347 59.4328 14.08V18H57.6408V14.248C57.6408 13.6507 57.5195 13.1933 57.2768 12.876C57.0341 12.5587 56.6561 12.4 56.1428 12.4C55.6388 12.4 55.2235 12.5773 54.8968 12.932C54.5795 13.2867 54.4208 13.7813 54.4208 14.416V18H52.6288ZM61.3284 18V12.554H60.3764V11.056H61.3284V10.244C61.3284 9.404 61.5384 8.80667 61.9584 8.452C62.3877 8.09733 62.9664 7.92 63.6944 7.92H64.4644V9.446H63.9744C63.6664 9.446 63.447 9.50667 63.3164 9.628C63.1857 9.74933 63.1204 9.95467 63.1204 10.244V11.056H64.6184V12.554H63.1204V18H61.3284ZM68.9562 18.168C68.2842 18.168 67.6775 18.014 67.1362 17.706C66.6042 17.398 66.1795 16.9733 65.8622 16.432C65.5542 15.8813 65.4002 15.2467 65.4002 14.528C65.4002 13.8093 65.5588 13.1793 65.8762 12.638C66.1935 12.0873 66.6182 11.658 67.1502 11.35C67.6915 11.042 68.2982 10.888 68.9702 10.888C69.6328 10.888 70.2302 11.042 70.7622 11.35C71.3035 11.658 71.7282 12.0873 72.0362 12.638C72.3535 13.1793 72.5122 13.8093 72.5122 14.528C72.5122 15.2467 72.3535 15.8813 72.0362 16.432C71.7282 16.9733 71.3035 17.398 70.7622 17.706C70.2208 18.014 69.6188 18.168 68.9562 18.168ZM68.9562 16.614C69.4228 16.614 69.8288 16.4413 70.1742 16.096C70.5195 15.7413 70.6922 15.2187 70.6922 14.528C70.6922 13.8373 70.5195 13.3193 70.1742 12.974C69.8288 12.6193 69.4275 12.442 68.9702 12.442C68.4942 12.442 68.0835 12.6193 67.7382 12.974C67.4022 13.3193 67.2342 13.8373 67.2342 14.528C67.2342 15.2187 67.4022 15.7413 67.7382 16.096C68.0835 16.4413 68.4895 16.614 68.9562 16.614ZM73.9744 18V11.056H75.5704L75.7384 12.358C75.9904 11.91 76.3311 11.5553 76.7604 11.294C77.1991 11.0233 77.7124 10.888 78.3004 10.888V12.778H77.7964C77.4044 12.778 77.0544 12.8387 76.7464 12.96C76.4384 13.0813 76.1957 13.2913 76.0184 13.59C75.8504 13.8887 75.7664 14.304 75.7664 14.836V18H73.9744ZM79.3852 18V11.056H80.9672L81.1212 11.994C81.3452 11.658 81.6392 11.392 82.0032 11.196C82.3765 10.9907 82.8059 10.888 83.2912 10.888C84.3645 10.888 85.1252 11.3033 85.5732 12.134C85.8252 11.7513 86.1612 11.448 86.5812 11.224C87.0105 11 87.4772 10.888 87.9812 10.888C88.8865 10.888 89.5819 11.1587 90.0672 11.7C90.5525 12.2413 90.7952 13.0347 90.7952 14.08V18H89.0032V14.248C89.0032 13.6507 88.8865 13.1933 88.6532 12.876C88.4292 12.5587 88.0792 12.4 87.6032 12.4C87.1179 12.4 86.7259 12.5773 86.4272 12.932C86.1379 13.2867 85.9932 13.7813 85.9932 14.416V18H84.2012V14.248C84.2012 13.6507 84.0845 13.1933 83.8512 12.876C83.6179 12.5587 83.2585 12.4 82.7732 12.4C82.2972 12.4 81.9099 12.5773 81.6112 12.932C81.3219 13.2867 81.1772 13.7813 81.1772 14.416V18H79.3852ZM95.7305 18.168C95.0305 18.168 94.4099 18.0187 93.8685 17.72C93.3272 17.4213 92.9025 17.0013 92.5945 16.46C92.2865 15.9187 92.1325 15.2933 92.1325 14.584C92.1325 13.8653 92.2819 13.226 92.5805 12.666C92.8885 12.106 93.3085 11.672 93.8405 11.364C94.3819 11.0467 95.0165 10.888 95.7445 10.888C96.4259 10.888 97.0279 11.0373 97.5505 11.336C98.0732 11.6347 98.4792 12.0453 98.7685 12.568C99.0672 13.0813 99.2165 13.6553 99.2165 14.29C99.2165 14.3927 99.2119 14.5 99.2025 14.612C99.2025 14.724 99.1979 14.8407 99.1885 14.962H93.9105C93.9479 15.5033 94.1345 15.928 94.4705 16.236C94.8159 16.544 95.2312 16.698 95.7165 16.698C96.0805 16.698 96.3839 16.6187 96.6265 16.46C96.8785 16.292 97.0652 16.0773 97.1865 15.816H99.0065C98.8759 16.2547 98.6565 16.656 98.3485 17.02C98.0499 17.3747 97.6765 17.6547 97.2285 17.86C96.7899 18.0653 96.2905 18.168 95.7305 18.168ZM95.7445 12.344C95.3059 12.344 94.9185 12.47 94.5825 12.722C94.2465 12.9647 94.0319 13.338 93.9385 13.842H97.3965C97.3685 13.3847 97.2005 13.0207 96.8925 12.75C96.5845 12.4793 96.2019 12.344 95.7445 12.344Z" fill="white"/>
</g>
<defs>
<filter id="filter0_dd_725_7929" x="0" y="0" width="113" height="34" filterUnits="userSpaceOnUse" color-interpolation-filters="sRGB">
<feFlood flood-opacity="0" result="BackgroundImageFix"/>
<feColorMatrix in="SourceAlpha" type="matrix" values="0 0 0 0 0 0 0 0 0 0 0 0 0 0 0 0 0 0 127 0" result="hardAlpha"/>
<feMorphology radius="2" operator="erode" in="SourceAlpha" result="effect1_dropShadow_725_7929"/>
<feOffset dy="2"/>
<feGaussianBlur stdDeviation="2"/>
<feComposite in2="hardAlpha" operator="out"/>
<feColorMatrix type="matrix" values="0 0 0 0 0 0 0 0 0 0 0 0 0 0 0 0 0 0 0.1 0"/>
<feBlend mode="normal" in2="BackgroundImageFix" result="effect1_dropShadow_725_7929"/>
<feColorMatrix in="SourceAlpha" type="matrix" values="0 0 0 0 0 0 0 0 0 0 0 0 0 0 0 0 0 0 127 0" result="hardAlpha"/>
<feMorphology radius="1" operator="erode" in="SourceAlpha" result="effect2_dropShadow_725_7929"/>
<feOffset dy="4"/>
<feGaussianBlur stdDeviation="3"/>
<feComposite in2="hardAlpha" operator="out"/>
<feColorMatrix type="matrix" values="0 0 0 0 0 0 0 0 0 0 0 0 0 0 0 0 0 0 0.1 0"/>
<feBlend mode="normal" in2="effect1_dropShadow_725_7929" result="effect2_dropShadow_725_7929"/>
<feBlend mode="normal" in="SourceGraphic" in2="effect2_dropShadow_725_7929" result="shape"/>
</filter>
<clipPath id="clip0_725_7929">
<rect width="12" height="12" fill="white" transform="translate(13 7)"/>
</clipPath>
</defs>
</svg>
