<svg width="32" height="32" viewBox="0 0 32 32" fill="none" xmlns="http://www.w3.org/2000/svg">
<rect width="32" height="32" rx="16" fill="black"/>
<g clip-path="url(#clip0_705_100385)">
<path d="M18.5142 24.5712C19.3939 25.1388 20.4422 25.3861 21.4829 25.2716C22.5236 25.1572 23.4931 24.6879 24.2284 23.9426L24.8713 23.3141C25.1531 23.0258 25.3109 22.6386 25.3109 22.2355C25.3109 21.8323 25.1531 21.4452 24.8713 21.1569L22.1427 18.4569C21.8569 18.176 21.4721 18.0186 21.0713 18.0186C20.6705 18.0186 20.2857 18.176 19.9999 18.4569V18.4569C19.7116 18.7388 19.3245 18.8966 18.9213 18.8966C18.5181 18.8966 18.131 18.7388 17.8427 18.4569L13.557 14.1712C13.414 14.0303 13.3005 13.8624 13.223 13.6772C13.1455 13.4921 13.1056 13.2934 13.1056 13.0926C13.1056 12.8919 13.1455 12.6932 13.223 12.508C13.3005 12.3229 13.414 12.155 13.557 12.0141V12.0141C13.8379 11.7282 13.9954 11.3434 13.9954 10.9426C13.9954 10.5418 13.8379 10.1571 13.557 9.87121L10.8427 7.15692C10.5544 6.87509 10.1673 6.71729 9.76415 6.71729C9.361 6.71729 8.97386 6.87509 8.68558 7.15692L8.05701 7.79978C7.31179 8.53513 6.84249 9.50464 6.72801 10.5453C6.61354 11.586 6.86088 12.6343 7.42844 13.5141C10.3856 17.8723 14.1483 21.6253 18.5142 24.5712V24.5712Z" stroke="white" stroke-linecap="round" stroke-linejoin="round"/>
</g>
<defs>
<clipPath id="clip0_705_100385">
<rect width="20" height="20" fill="white" transform="translate(6 6)"/>
</clipPath>
</defs>
</svg>
