<svg width="162" height="34" viewBox="0 0 162 34" fill="none" xmlns="http://www.w3.org/2000/svg">
<g filter="url(#filter0_dd_855_14012)">
<path d="M5 13C5 6.37258 10.3726 1 17 1H145C151.627 1 157 6.37258 157 13V13C157 19.6274 151.627 25 145 25H5V13Z" fill="#FB923C" shape-rendering="crispEdges"/>
<g clip-path="url(#clip0_855_14012)">
<path d="M19 18.5716C22.077 18.5716 24.5714 16.0772 24.5714 13.0001C24.5714 9.92312 22.077 7.42871 19 7.42871C15.923 7.42871 13.4286 9.92312 13.4286 13.0001C13.4286 16.0772 15.923 18.5716 19 18.5716Z" stroke="white" stroke-linecap="round" stroke-linejoin="round"/>
<path d="M19 10V12.5714" stroke="white" stroke-linecap="round" stroke-linejoin="round"/>
<path d="M19 15.572C19.2367 15.572 19.4286 15.3801 19.4286 15.1434C19.4286 14.9067 19.2367 14.7148 19 14.7148C18.7633 14.7148 18.5714 14.9067 18.5714 15.1434C18.5714 15.3801 18.7633 15.572 19 15.572Z" stroke="white" stroke-linecap="round" stroke-linejoin="round"/>
</g>
<path d="M37.6289 18.168C36.9103 18.168 36.2756 18.0467 35.7249 17.804C35.1743 17.552 34.7403 17.1973 34.4229 16.74C34.1056 16.2733 33.9423 15.7087 33.9329 15.046H35.8229C35.8416 15.5033 36.0049 15.8907 36.3129 16.208C36.6303 16.516 37.0643 16.67 37.6149 16.67C38.0909 16.67 38.4689 16.558 38.7489 16.334C39.0289 16.1007 39.1689 15.7927 39.1689 15.41C39.1689 15.0087 39.0429 14.696 38.7909 14.472C38.5483 14.248 38.2216 14.066 37.8109 13.926C37.4003 13.786 36.9616 13.6367 36.4949 13.478C35.7389 13.2167 35.1603 12.8807 34.7589 12.47C34.3669 12.0593 34.1709 11.5133 34.1709 10.832C34.1616 10.2533 34.2969 9.75867 34.5769 9.348C34.8663 8.928 35.2583 8.606 35.7529 8.382C36.2476 8.14867 36.8169 8.032 37.4609 8.032C38.1143 8.032 38.6883 8.14867 39.1829 8.382C39.6869 8.61533 40.0789 8.942 40.3589 9.362C40.6483 9.782 40.8023 10.2813 40.8209 10.86H38.9029C38.8936 10.5147 38.7583 10.2113 38.4969 9.95C38.2449 9.67933 37.8903 9.544 37.4329 9.544C37.0409 9.53467 36.7096 9.63267 36.4389 9.838C36.1776 10.034 36.0469 10.3233 36.0469 10.706C36.0469 11.0327 36.1496 11.294 36.3549 11.49C36.5603 11.6767 36.8403 11.8353 37.1949 11.966C37.5496 12.0967 37.9556 12.2367 38.4129 12.386C38.8983 12.554 39.3416 12.75 39.7429 12.974C40.1443 13.198 40.4663 13.4967 40.7089 13.87C40.9516 14.234 41.0729 14.7053 41.0729 15.284C41.0729 15.7973 40.9423 16.2733 40.6809 16.712C40.4196 17.1507 40.0323 17.5053 39.5189 17.776C39.0056 18.0373 38.3756 18.168 37.6289 18.168ZM45.7865 18.168C45.1145 18.168 44.5078 18.014 43.9665 17.706C43.4345 17.398 43.0098 16.9733 42.6925 16.432C42.3845 15.8813 42.2305 15.2467 42.2305 14.528C42.2305 13.8093 42.3891 13.1793 42.7065 12.638C43.0238 12.0873 43.4485 11.658 43.9805 11.35C44.5218 11.042 45.1285 10.888 45.8005 10.888C46.4631 10.888 47.0605 11.042 47.5925 11.35C48.1338 11.658 48.5585 12.0873 48.8665 12.638C49.1838 13.1793 49.3425 13.8093 49.3425 14.528C49.3425 15.2467 49.1838 15.8813 48.8665 16.432C48.5585 16.9733 48.1338 17.398 47.5925 17.706C47.0511 18.014 46.4491 18.168 45.7865 18.168ZM45.7865 16.614C46.2531 16.614 46.6591 16.4413 47.0045 16.096C47.3498 15.7413 47.5225 15.2187 47.5225 14.528C47.5225 13.8373 47.3498 13.3193 47.0045 12.974C46.6591 12.6193 46.2578 12.442 45.8005 12.442C45.3245 12.442 44.9138 12.6193 44.5685 12.974C44.2325 13.3193 44.0645 13.8373 44.0645 14.528C44.0645 15.2187 44.2325 15.7413 44.5685 16.096C44.9138 16.4413 45.3198 16.614 45.7865 16.614ZM53.4087 18.168C52.5407 18.168 51.8687 17.8973 51.3927 17.356C50.926 16.8147 50.6927 16.0213 50.6927 14.976V11.056H52.4707V14.808C52.4707 15.4053 52.592 15.8627 52.8347 16.18C53.0774 16.4973 53.46 16.656 53.9827 16.656C54.4774 16.656 54.8834 16.4787 55.2007 16.124C55.5274 15.7693 55.6907 15.2747 55.6907 14.64V11.056H57.4827V18H55.9007L55.7607 16.824C55.546 17.2347 55.2334 17.5613 54.8227 17.804C54.4214 18.0467 53.95 18.168 53.4087 18.168ZM62.0523 18.168C61.4363 18.168 60.8949 18.07 60.4283 17.874C59.9616 17.6687 59.5883 17.3887 59.3083 17.034C59.0283 16.6793 58.8603 16.2687 58.8043 15.802H60.6103C60.6663 16.0727 60.8156 16.306 61.0583 16.502C61.3103 16.6887 61.6323 16.782 62.0243 16.782C62.4163 16.782 62.7009 16.7027 62.8783 16.544C63.0649 16.3853 63.1583 16.2033 63.1583 15.998C63.1583 15.6993 63.0276 15.4987 62.7663 15.396C62.5049 15.284 62.1409 15.1767 61.6743 15.074C61.3756 15.0087 61.0723 14.9293 60.7643 14.836C60.4563 14.7427 60.1716 14.626 59.9103 14.486C59.6583 14.3367 59.4529 14.15 59.2943 13.926C59.1356 13.6927 59.0563 13.408 59.0563 13.072C59.0563 12.456 59.2989 11.938 59.7843 11.518C60.2789 11.098 60.9696 10.888 61.8563 10.888C62.6776 10.888 63.3309 11.0793 63.8163 11.462C64.3109 11.8447 64.6049 12.372 64.6983 13.044H63.0043C62.9016 12.5307 62.5143 12.274 61.8423 12.274C61.5063 12.274 61.2449 12.3393 61.0583 12.47C60.8809 12.6007 60.7923 12.764 60.7923 12.96C60.7923 13.1653 60.9276 13.3287 61.1983 13.45C61.4689 13.5713 61.8283 13.6833 62.2763 13.786C62.7616 13.898 63.2049 14.024 63.6063 14.164C64.0169 14.2947 64.3436 14.4953 64.5863 14.766C64.8289 15.0273 64.9503 15.4053 64.9503 15.9C64.9596 16.3293 64.8476 16.7167 64.6143 17.062C64.3809 17.4073 64.0449 17.678 63.6063 17.874C63.1676 18.07 62.6496 18.168 62.0523 18.168ZM72.4637 18.168C71.8477 18.168 71.3063 18.07 70.8397 17.874C70.373 17.6687 69.9997 17.3887 69.7197 17.034C69.4397 16.6793 69.2717 16.2687 69.2157 15.802H71.0217C71.0777 16.0727 71.227 16.306 71.4697 16.502C71.7217 16.6887 72.0437 16.782 72.4357 16.782C72.8277 16.782 73.1123 16.7027 73.2897 16.544C73.4763 16.3853 73.5697 16.2033 73.5697 15.998C73.5697 15.6993 73.439 15.4987 73.1777 15.396C72.9163 15.284 72.5523 15.1767 72.0857 15.074C71.787 15.0087 71.4837 14.9293 71.1757 14.836C70.8677 14.7427 70.583 14.626 70.3217 14.486C70.0697 14.3367 69.8643 14.15 69.7057 13.926C69.547 13.6927 69.4677 13.408 69.4677 13.072C69.4677 12.456 69.7103 11.938 70.1957 11.518C70.6903 11.098 71.381 10.888 72.2677 10.888C73.089 10.888 73.7423 11.0793 74.2277 11.462C74.7223 11.8447 75.0163 12.372 75.1097 13.044H73.4157C73.313 12.5307 72.9257 12.274 72.2537 12.274C71.9177 12.274 71.6563 12.3393 71.4697 12.47C71.2923 12.6007 71.2037 12.764 71.2037 12.96C71.2037 13.1653 71.339 13.3287 71.6097 13.45C71.8803 13.5713 72.2397 13.6833 72.6877 13.786C73.173 13.898 73.6163 14.024 74.0177 14.164C74.4283 14.2947 74.755 14.4953 74.9977 14.766C75.2403 15.0273 75.3617 15.4053 75.3617 15.9C75.371 16.3293 75.259 16.7167 75.0257 17.062C74.7923 17.4073 74.4563 17.678 74.0177 17.874C73.579 18.07 73.061 18.168 72.4637 18.168ZM79.4131 18.168C78.5451 18.168 77.8731 17.8973 77.3971 17.356C76.9305 16.8147 76.6971 16.0213 76.6971 14.976V11.056H78.4751V14.808C78.4751 15.4053 78.5965 15.8627 78.8391 16.18C79.0818 16.4973 79.4645 16.656 79.9871 16.656C80.4818 16.656 80.8878 16.4787 81.2051 16.124C81.5318 15.7693 81.6951 15.2747 81.6951 14.64V11.056H83.4871V18H81.9051L81.7651 16.824C81.5505 17.2347 81.2378 17.5613 80.8271 17.804C80.4258 18.0467 79.9545 18.168 79.4131 18.168ZM85.1867 18V11.056H86.7827L86.9507 12.358C87.2027 11.91 87.5434 11.5553 87.9727 11.294C88.4114 11.0233 88.9247 10.888 89.5127 10.888V12.778H89.0087C88.6167 12.778 88.2667 12.8387 87.9587 12.96C87.6507 13.0813 87.4081 13.2913 87.2307 13.59C87.0627 13.8887 86.9787 14.304 86.9787 14.836V18H85.1867ZM92.4735 18L89.9255 11.056H91.8015L93.5655 16.306L95.3295 11.056H97.2055L94.6435 18H92.4735ZM101.228 18.168C100.528 18.168 99.9073 18.0187 99.366 17.72C98.8247 17.4213 98.4 17.0013 98.092 16.46C97.784 15.9187 97.63 15.2933 97.63 14.584C97.63 13.8653 97.7793 13.226 98.078 12.666C98.386 12.106 98.806 11.672 99.338 11.364C99.8793 11.0467 100.514 10.888 101.242 10.888C101.923 10.888 102.525 11.0373 103.048 11.336C103.571 11.6347 103.977 12.0453 104.266 12.568C104.565 13.0813 104.714 13.6553 104.714 14.29C104.714 14.3927 104.709 14.5 104.7 14.612C104.7 14.724 104.695 14.8407 104.686 14.962H99.408C99.4453 15.5033 99.632 15.928 99.968 16.236C100.313 16.544 100.729 16.698 101.214 16.698C101.578 16.698 101.881 16.6187 102.124 16.46C102.376 16.292 102.563 16.0773 102.684 15.816H104.504C104.373 16.2547 104.154 16.656 103.846 17.02C103.547 17.3747 103.174 17.6547 102.726 17.86C102.287 18.0653 101.788 18.168 101.228 18.168ZM101.242 12.344C100.803 12.344 100.416 12.47 100.08 12.722C99.744 12.9647 99.5293 13.338 99.436 13.842H102.894C102.866 13.3847 102.698 13.0207 102.39 12.75C102.082 12.4793 101.699 12.344 101.242 12.344ZM107.047 9.978C106.721 9.978 106.45 9.88 106.235 9.684C106.03 9.488 105.927 9.24067 105.927 8.942C105.927 8.64333 106.03 8.40067 106.235 8.214C106.45 8.018 106.721 7.92 107.047 7.92C107.374 7.92 107.64 8.018 107.845 8.214C108.06 8.40067 108.167 8.64333 108.167 8.942C108.167 9.24067 108.06 9.488 107.845 9.684C107.64 9.88 107.374 9.978 107.047 9.978ZM106.151 18V11.056H107.943V18H106.151ZM109.674 18V7.92H111.466V18H109.674ZM113.157 18V7.92H114.949V18H113.157ZM119.034 18.168C118.436 18.168 117.946 18.0747 117.564 17.888C117.181 17.692 116.896 17.4353 116.71 17.118C116.523 16.8007 116.43 16.4507 116.43 16.068C116.43 15.424 116.682 14.9013 117.186 14.5C117.69 14.0987 118.446 13.898 119.454 13.898H121.218V13.73C121.218 13.254 121.082 12.904 120.812 12.68C120.541 12.456 120.205 12.344 119.804 12.344C119.44 12.344 119.122 12.4327 118.852 12.61C118.581 12.778 118.413 13.03 118.348 13.366H116.598C116.644 12.862 116.812 12.4233 117.102 12.05C117.4 11.6767 117.783 11.392 118.25 11.196C118.716 10.9907 119.239 10.888 119.818 10.888C120.807 10.888 121.586 11.1353 122.156 11.63C122.725 12.1247 123.01 12.8247 123.01 13.73V18H121.484L121.316 16.88C121.11 17.2533 120.821 17.5613 120.448 17.804C120.084 18.0467 119.612 18.168 119.034 18.168ZM119.44 16.768C119.953 16.768 120.35 16.6 120.63 16.264C120.919 15.928 121.101 15.5127 121.176 15.018H119.65C119.174 15.018 118.833 15.1067 118.628 15.284C118.422 15.452 118.32 15.662 118.32 15.914C118.32 16.1847 118.422 16.3947 118.628 16.544C118.833 16.6933 119.104 16.768 119.44 16.768ZM124.58 18V11.056H126.162L126.302 12.232C126.516 11.8213 126.824 11.4947 127.226 11.252C127.636 11.0093 128.117 10.888 128.668 10.888C129.526 10.888 130.194 11.1587 130.67 11.7C131.146 12.2413 131.384 13.0347 131.384 14.08V18H129.592V14.248C129.592 13.6507 129.47 13.1933 129.228 12.876C128.985 12.5587 128.607 12.4 128.094 12.4C127.59 12.4 127.174 12.5773 126.848 12.932C126.53 13.2867 126.372 13.7813 126.372 14.416V18H124.58ZM136.359 18.168C135.65 18.168 135.025 18.014 134.483 17.706C133.942 17.398 133.513 16.9687 133.195 16.418C132.887 15.8673 132.733 15.2373 132.733 14.528C132.733 13.8187 132.887 13.1887 133.195 12.638C133.513 12.0873 133.942 11.658 134.483 11.35C135.025 11.042 135.65 10.888 136.359 10.888C137.246 10.888 137.993 11.1213 138.599 11.588C139.206 12.0453 139.593 12.68 139.761 13.492H137.871C137.778 13.156 137.591 12.8947 137.311 12.708C137.041 12.512 136.719 12.414 136.345 12.414C135.851 12.414 135.431 12.6007 135.085 12.974C134.74 13.3473 134.567 13.8653 134.567 14.528C134.567 15.1907 134.74 15.7087 135.085 16.082C135.431 16.4553 135.851 16.642 136.345 16.642C136.719 16.642 137.041 16.5487 137.311 16.362C137.591 16.1753 137.778 15.9093 137.871 15.564H139.761C139.593 16.348 139.206 16.978 138.599 17.454C137.993 17.93 137.246 18.168 136.359 18.168ZM144.586 18.168C143.886 18.168 143.265 18.0187 142.724 17.72C142.183 17.4213 141.758 17.0013 141.45 16.46C141.142 15.9187 140.988 15.2933 140.988 14.584C140.988 13.8653 141.137 13.226 141.436 12.666C141.744 12.106 142.164 11.672 142.696 11.364C143.237 11.0467 143.872 10.888 144.6 10.888C145.281 10.888 145.883 11.0373 146.406 11.336C146.929 11.6347 147.335 12.0453 147.624 12.568C147.923 13.0813 148.072 13.6553 148.072 14.29C148.072 14.3927 148.067 14.5 148.058 14.612C148.058 14.724 148.053 14.8407 148.044 14.962H142.766C142.803 15.5033 142.99 15.928 143.326 16.236C143.671 16.544 144.087 16.698 144.572 16.698C144.936 16.698 145.239 16.6187 145.482 16.46C145.734 16.292 145.921 16.0773 146.042 15.816H147.862C147.731 16.2547 147.512 16.656 147.204 17.02C146.905 17.3747 146.532 17.6547 146.084 17.86C145.645 18.0653 145.146 18.168 144.586 18.168ZM144.6 12.344C144.161 12.344 143.774 12.47 143.438 12.722C143.102 12.9647 142.887 13.338 142.794 13.842H146.252C146.224 13.3847 146.056 13.0207 145.748 12.75C145.44 12.4793 145.057 12.344 144.6 12.344Z" fill="white"/>
</g>
<defs>
<filter id="filter0_dd_855_14012" x="0" y="0" width="162" height="34" filterUnits="userSpaceOnUse" color-interpolation-filters="sRGB">
<feFlood flood-opacity="0" result="BackgroundImageFix"/>
<feColorMatrix in="SourceAlpha" type="matrix" values="0 0 0 0 0 0 0 0 0 0 0 0 0 0 0 0 0 0 127 0" result="hardAlpha"/>
<feMorphology radius="2" operator="erode" in="SourceAlpha" result="effect1_dropShadow_855_14012"/>
<feOffset dy="2"/>
<feGaussianBlur stdDeviation="2"/>
<feComposite in2="hardAlpha" operator="out"/>
<feColorMatrix type="matrix" values="0 0 0 0 0 0 0 0 0 0 0 0 0 0 0 0 0 0 0.1 0"/>
<feBlend mode="normal" in2="BackgroundImageFix" result="effect1_dropShadow_855_14012"/>
<feColorMatrix in="SourceAlpha" type="matrix" values="0 0 0 0 0 0 0 0 0 0 0 0 0 0 0 0 0 0 127 0" result="hardAlpha"/>
<feMorphology radius="1" operator="erode" in="SourceAlpha" result="effect2_dropShadow_855_14012"/>
<feOffset dy="4"/>
<feGaussianBlur stdDeviation="3"/>
<feComposite in2="hardAlpha" operator="out"/>
<feColorMatrix type="matrix" values="0 0 0 0 0 0 0 0 0 0 0 0 0 0 0 0 0 0 0.1 0"/>
<feBlend mode="normal" in2="effect1_dropShadow_855_14012" result="effect2_dropShadow_855_14012"/>
<feBlend mode="normal" in="SourceGraphic" in2="effect2_dropShadow_855_14012" result="shape"/>
</filter>
<clipPath id="clip0_855_14012">
<rect width="12" height="12" fill="white" transform="translate(13 7)"/>
</clipPath>
</defs>
</svg>
