<svg width="141" height="77" viewBox="0 0 141 77" fill="none" xmlns="http://www.w3.org/2000/svg">
<path d="M20.417 68.1867C19.2429 68.4442 17.9543 68.5873 16.5226 68.5873C11.3396 68.5873 8.73376 66.1551 8.73376 61.2908C8.73376 56.7698 11.3396 54.5093 16.5226 54.5093C17.9543 54.5093 19.2429 54.6523 20.417 54.9099V57.714C19.2429 57.4565 18.0402 57.3134 16.8089 57.3134C13.8022 57.3134 12.3132 58.6297 12.3132 61.2622C12.3132 64.2666 13.8022 65.7545 16.8089 65.7545C18.0689 65.7545 19.2715 65.6115 20.417 65.3539V68.1867Z" fill="#2C55A2"/>
<path d="M22.1064 64.2096C22.1064 61.3196 24.1395 59.8889 28.2344 59.8889C29.4657 59.8889 30.5538 59.9747 31.4988 60.1464V59.2308C31.4988 57.9718 30.2675 57.3422 27.8335 57.3422C26.2872 57.3422 24.7695 57.5712 23.2519 58.0004V55.1962C24.7695 54.7384 26.2872 54.5381 27.8335 54.5381C32.6442 54.5381 35.0496 56.0832 35.0496 59.1735V68.6161H33.2456L31.7279 67.6146C30.4966 68.2728 29.208 68.6161 27.8049 68.6161C23.9964 68.5875 22.1064 67.1282 22.1064 64.2096ZM28.2058 62.5786C26.4876 62.5786 25.6572 63.1223 25.6572 64.181C25.6572 65.2397 26.3731 65.7833 27.8049 65.7833C29.2653 65.7833 30.4966 65.4114 31.4988 64.696V62.8361C30.5825 62.6644 29.4943 62.5786 28.2058 62.5786Z" fill="#2C55A2"/>
<path d="M38.3999 68.5873V54.5093H41.1489L41.5784 56.312C42.8097 55.1102 44.127 54.5093 45.5014 54.5093V57.3707C44.1842 57.3707 42.9815 57.9716 41.9507 59.1447V68.5587L38.3999 68.5873Z" fill="#2C55A2"/>
<path d="M47.5059 52.249H50.1403L50.6844 54.5381H53.9488V57.3423H51.0853V63.809C51.0853 65.1253 51.658 65.7834 52.7747 65.7834H53.9488V68.5876H51.0566C48.7085 68.5876 47.5059 67.3285 47.5059 64.7819V52.249Z" fill="#2C55A2"/>
<path d="M55.7815 61.5483C55.7815 56.7698 58.1582 54.3662 62.883 54.3662C67.6079 54.3662 69.9846 56.7698 69.9846 61.5483C69.9846 66.3268 67.6079 68.7018 62.883 68.7018C58.1582 68.7304 55.7815 66.3268 55.7815 61.5483ZM62.883 65.9262C65.2598 65.9262 66.4338 64.4669 66.4338 61.5197C66.4338 58.6583 65.2598 57.2276 62.883 57.2276C60.5063 57.2276 59.3323 58.6583 59.3323 61.5197C59.3323 64.4383 60.5063 65.9262 62.883 65.9262Z" fill="#2C55A2"/>
<path d="M72.7908 68.5873V54.5093H74.4803L74.9098 56.312C76.1411 55.1102 77.6301 54.5093 79.3769 54.5093V56.5695C77.6874 56.5695 76.3415 57.1704 75.282 58.3435V68.5587L72.7908 68.5873Z" fill="#C9368C"/>
<path d="M81.1809 64.2096C81.1809 61.3196 83.0995 59.8889 86.908 59.8889C88.3111 59.8889 89.5424 59.9747 90.5733 60.1464V58.8302C90.5733 57.3136 89.3133 56.5411 86.7648 56.5411C85.3044 56.5411 83.844 56.77 82.2977 57.1992V55.1962C83.8153 54.7384 85.3044 54.5381 86.7648 54.5381C90.9455 54.5381 93.0359 56.026 93.0359 59.0305V68.5875H91.776L90.7737 67.586C89.5424 68.2441 88.1106 68.5875 86.4498 68.5875C82.9563 68.5875 81.1809 67.1282 81.1809 64.2096ZM86.908 61.8919C84.7603 61.8919 83.6722 62.6644 83.6722 64.181C83.6722 65.7833 84.6171 66.5845 86.4784 66.5845C88.1965 66.5845 89.571 66.2126 90.5733 65.4972V62.178C89.5997 61.9777 88.3684 61.8919 86.908 61.8919Z" fill="#C9368C"/>
<path d="M109.014 67.7577C107.296 68.33 105.206 68.6161 102.686 68.6161C98.5052 68.6161 96.3862 66.184 96.3862 61.291C96.3862 56.7986 98.6198 54.5381 103.058 54.5381C104.261 54.5381 105.435 54.767 106.494 55.1962V49.4448H108.986L109.014 67.7577ZM106.552 57.3995C105.55 56.9131 104.404 56.6841 103.116 56.6841C100.281 56.6841 98.8775 58.2007 98.8775 61.2051C98.8775 64.7819 100.281 66.5559 103.116 66.5559C104.404 66.5559 105.55 66.3843 106.552 66.0409V57.3995Z" fill="#C9368C"/>
<path d="M115.515 49.4448V51.4478H113.023V49.4448H115.515ZM115.515 54.5381V68.6161H113.023V54.5381H115.515Z" fill="#C9368C"/>
<path d="M118.894 61.5483C118.894 56.8556 121.127 54.5093 125.594 54.5093C130.061 54.5093 132.295 56.8556 132.295 61.5483C132.295 66.241 130.061 68.5587 125.594 68.5587C121.127 68.5873 118.894 66.241 118.894 61.5483ZM125.594 66.5843C128.4 66.5843 129.832 64.8961 129.832 61.4911C129.832 58.1719 128.429 56.5122 125.594 56.5122C122.759 56.5122 121.356 58.1719 121.356 61.4911C121.356 64.8961 122.759 66.5843 125.594 66.5843Z" fill="#C9368C"/>
<path d="M70.6145 8.29785C62.9403 8.29785 56.7264 14.5071 56.7264 22.1756C56.7264 29.8441 70.6145 46.9552 70.6145 46.9552C70.6145 46.9552 84.5026 29.8155 84.5026 22.1756C84.5026 14.5357 78.2888 8.29785 70.6145 8.29785ZM70.6145 32.6483C64.4866 32.6483 59.5041 27.6695 59.5041 21.5461C59.5041 15.4227 64.4866 10.4439 70.6145 10.4439C76.7425 10.4439 81.725 15.4227 81.725 21.5461C81.725 27.6695 76.7711 32.6483 70.6145 32.6483Z" fill="url(#paint0_linear_769_2514)"/>
<path d="M70.729 13.1909C70.6145 13.1909 70.5286 13.2768 70.4999 13.3626C69.8127 18.8565 69.8127 24.2073 70.4999 29.7011C70.4999 29.787 70.6145 29.8728 70.729 29.8728C70.8436 29.8728 70.9581 29.787 70.9581 29.7011C71.6453 24.2073 71.6453 18.8565 70.9581 13.3626C70.9295 13.2768 70.8436 13.1909 70.729 13.1909Z" fill="url(#paint1_linear_769_2514)"/>
<path d="M68.0086 16.6816C67.8941 16.6816 67.7796 16.7675 67.7796 16.8247C67.3787 20.0009 67.3787 23.0912 67.7796 26.2673C67.7796 26.3531 67.8941 26.4104 68.0086 26.4104C68.1232 26.4104 68.2377 26.3245 68.2377 26.2673C68.6386 23.0912 68.6386 20.0009 68.2377 16.8247C68.2377 16.7389 68.1232 16.6816 68.0086 16.6816Z" fill="url(#paint2_linear_769_2514)"/>
<path d="M62.9402 18.1982C62.7971 18.1982 62.6825 18.2841 62.6825 18.3413C62.3675 20.4874 62.3675 22.5762 62.6825 24.7222C62.6825 24.7794 62.7971 24.8653 62.9402 24.8653C63.0834 24.8653 63.198 24.7794 63.198 24.7222C63.513 22.5762 63.513 20.4874 63.198 18.3413C63.198 18.2841 63.0834 18.1982 62.9402 18.1982Z" fill="url(#paint3_linear_769_2514)"/>
<path d="M65.4601 15.7949C65.3456 15.7949 65.2311 15.8521 65.2311 15.938C64.7443 19.6864 64.7443 23.349 65.2311 27.0974C65.2311 27.1833 65.3456 27.2405 65.4601 27.2405C65.5747 27.2405 65.6892 27.1546 65.6892 27.0974C66.176 23.349 66.176 19.6864 65.6892 15.938C65.6892 15.8808 65.5747 15.7949 65.4601 15.7949Z" fill="url(#paint4_linear_769_2514)"/>
<path d="M73.5067 15.7949C73.3921 15.7949 73.2776 15.8808 73.2776 15.938C72.7908 19.6864 72.7908 23.349 73.2776 27.0974C73.2776 27.1833 73.3921 27.2405 73.5067 27.2405C73.6212 27.2405 73.7357 27.1546 73.7357 27.0974C74.2225 23.349 74.2225 19.6864 73.7357 15.938C73.7071 15.8808 73.5926 15.7949 73.5067 15.7949Z" fill="url(#paint5_linear_769_2514)"/>
<path d="M75.9407 18.3413C75.8261 18.3413 75.7116 18.3985 75.7116 18.4844C75.4539 20.5446 75.4539 22.5476 75.7116 24.5791C75.7116 24.665 75.8261 24.7222 75.9407 24.7222C76.0552 24.7222 76.1698 24.665 76.1698 24.5791C76.4275 22.5189 76.4275 20.5446 76.1698 18.4844C76.1411 18.4272 76.0552 18.3413 75.9407 18.3413Z" fill="url(#paint6_linear_769_2514)"/>
<path d="M78.2888 17.1685C78.1742 17.1685 78.0597 17.2257 78.0597 17.3115C77.6875 20.1443 77.6875 22.9198 78.0597 25.7812C78.0597 25.8671 78.1742 25.9243 78.2888 25.9243C78.4033 25.9243 78.5179 25.8671 78.5179 25.7812C78.8901 22.9198 78.8901 20.1729 78.5179 17.3115C78.5179 17.2257 78.4033 17.1685 78.2888 17.1685Z" fill="url(#paint7_linear_769_2514)"/>
<defs>
<linearGradient id="paint0_linear_769_2514" x1="57.0949" y1="27.6316" x2="84.8711" y2="27.6316" gradientUnits="userSpaceOnUse">
<stop offset="0.2075" stop-color="#2D55A3"/>
<stop offset="0.8161" stop-color="#C9368C"/>
</linearGradient>
<linearGradient id="paint1_linear_769_2514" x1="63.4622" y1="21.5369" x2="78.5655" y2="21.5369" gradientUnits="userSpaceOnUse">
<stop stop-color="#2C55A2"/>
<stop offset="0.1811" stop-color="#5154A0"/>
<stop offset="0.571" stop-color="#914C98"/>
<stop offset="1" stop-color="#C9368C"/>
</linearGradient>
<linearGradient id="paint2_linear_769_2514" x1="62.8803" y1="21.551" x2="77.9836" y2="21.551" gradientUnits="userSpaceOnUse">
<stop stop-color="#2C55A2"/>
<stop offset="1" stop-color="#C9368C"/>
</linearGradient>
<linearGradient id="paint3_linear_769_2514" x1="62.8804" y1="21.5368" x2="77.9836" y2="21.5368" gradientUnits="userSpaceOnUse">
<stop stop-color="#2C55A2"/>
<stop offset="1" stop-color="#C9368C"/>
</linearGradient>
<linearGradient id="paint4_linear_769_2514" x1="62.8804" y1="21.5227" x2="77.9836" y2="21.5227" gradientUnits="userSpaceOnUse">
<stop stop-color="#2C55A2"/>
<stop offset="1" stop-color="#C9368C"/>
</linearGradient>
<linearGradient id="paint5_linear_769_2514" x1="62.8804" y1="21.5227" x2="77.9836" y2="21.5227" gradientUnits="userSpaceOnUse">
<stop stop-color="#2C55A2"/>
<stop offset="1" stop-color="#C9368C"/>
</linearGradient>
<linearGradient id="paint6_linear_769_2514" x1="62.8804" y1="21.5368" x2="77.9836" y2="21.5368" gradientUnits="userSpaceOnUse">
<stop stop-color="#2C55A2"/>
<stop offset="1" stop-color="#C9368C"/>
</linearGradient>
<linearGradient id="paint7_linear_769_2514" x1="62.8804" y1="21.5514" x2="77.9837" y2="21.5514" gradientUnits="userSpaceOnUse">
<stop stop-color="#2C55A2"/>
<stop offset="1" stop-color="#C9368C"/>
</linearGradient>
</defs>
</svg>
